<svg preserveAspectRatio="none" width="100%" height="100%" overflow="visible" style="display: block;" viewBox="0 0 44 44" fill="none" xmlns="http://www.w3.org/2000/svg">
<g id="Sticky Note">
<mask id="mask0_0_18" style="mask-type:alpha" maskUnits="userSpaceOnUse" x="0" y="0" width="44" height="44">
<path id="Mask" d="M40 0C42.2091 0 44 1.79086 44 4V32.334L32.334 44H4C1.79086 44 6.44266e-08 42.2091 0 40V4C0 1.79086 1.79086 6.44256e-08 4 0H40Z" fill="var(--fill-0, #EAE4AA)"/>
</mask>
<g mask="url(#mask0_0_18)">
<rect id="base" width="44" height="44" rx="4" fill="var(--fill-0, #EAE4AA)"/>
<path id="curl" d="M32 36C32 33.7909 33.7909 32 36 32H72C74.2091 32 76 33.7909 76 36V72C76 74.2091 74.2091 76 72 76H36C33.7909 76 32 74.2091 32 72V36Z" fill="var(--fill-0, #F0D167)"/>
</g>
</g>
</svg>
